<svg width="572" height="103" viewBox="0 0 572 103" fill="none" xmlns="http://www.w3.org/2000/svg">
<path d="M59.9677 86.8007C59.6877 88.3407 58.2077 89.3607 56.6677 89.0607C55.1277 88.7807 54.1077 87.3007 54.4077 85.7607C54.7077 84.2207 56.1677 83.2007 57.7077 83.5007C59.2277 83.7807 60.2477 85.2607 59.9677 86.8007ZM48.4477 7.84066C24.6877 7.72066 6.3077 26.4607 5.2077 49.6207C4.9477 55.3007 5.4877 60.3607 7.6477 65.0207C8.3477 65.8407 9.0277 66.4407 9.5477 67.0407C15.6077 73.9407 24.5277 73.6007 27.3677 72.8807C15.8877 72.5207 9.9077 63.8807 10.2477 51.6607C10.7677 32.0007 26.9077 16.1007 46.5677 16.2607C55.5877 16.3407 63.8077 19.7407 70.0677 25.2807C71.9477 26.9407 71.2277 30.0807 68.8077 30.7207C65.4077 31.6207 61.1277 31.4607 60.1677 31.1807C56.9477 30.2207 56.1077 33.3007 58.3477 34.1607C59.5877 34.6407 60.8877 34.7607 62.1277 34.7007C63.1477 34.6607 63.4277 36.1007 62.4477 36.4007C60.5877 36.9807 58.0277 37.5407 54.5077 37.9407C50.2877 38.4007 50.7677 41.8207 54.5477 41.7207C63.7877 41.4607 71.6077 32.3807 74.7877 30.3007C77.7477 34.3607 80.2677 39.0207 81.3277 44.1207C80.7677 44.7807 75.7877 51.8207 76.0677 56.4007C76.2477 59.2207 79.4677 59.3807 79.2477 55.4207C79.1277 53.4007 79.4477 51.9207 79.9477 50.8207C80.4677 49.6607 82.2277 50.0207 82.2477 51.3007C82.2677 51.7007 82.2677 52.1007 82.2677 52.5007C82.2077 64.7407 75.8877 73.3807 66.4477 79.0807C65.0077 79.9607 64.2277 81.6207 64.5077 83.2807L64.5277 83.3607C65.0277 86.3407 68.4277 87.8007 70.9477 86.1207C82.8077 78.2607 91.1677 64.8407 91.2477 50.1007C91.3477 26.8807 72.1877 7.98066 48.4477 7.84066Z" fill="url(#paint0_radial_511_63)"/>
<path d="M58.8277 100.081C56.1677 100.721 53.6677 98.5007 53.9477 95.7807C53.9477 95.7607 53.9477 95.7207 53.9477 95.7007C54.1277 94.0207 55.3477 92.6207 56.9877 92.2207C75.7077 87.7207 91.0877 70.1207 91.2077 50.0807C91.3277 26.8807 72.1677 7.98067 48.4277 7.84067C24.6877 7.72067 6.42769 26.4607 5.20768 49.6207C4.32769 66.4207 14.1677 71.2207 18.5277 74.6607C13.5277 73.5607 3.90769 73.8807 0.167686 50.9407C0.147686 50.2807 0.127686 49.6207 0.127686 48.9407C0.287686 21.7807 22.4477 -0.139333 49.6277 0.000666903C76.8077 0.140667 98.7277 22.3007 98.5877 49.4607C98.4477 73.1807 80.5277 94.9207 58.8277 100.081ZM47.8077 94.1607C45.5477 93.7407 43.3877 95.2407 42.9677 97.4807C42.5477 99.7407 44.0477 101.901 46.2877 102.321C48.5477 102.741 50.7077 101.241 51.1277 99.0007C51.5477 96.7407 50.0677 94.5807 47.8077 94.1607Z" fill="url(#paint1_radial_511_63)"/>
<path opacity="0.37" d="M27.3677 72.8807C22.1477 72.7207 18.0677 70.8407 15.2077 67.7007C4.8877 62.7007 0.487705 51.6007 0.527705 43.0607C0.287705 45.0007 0.147705 46.9607 0.147705 48.9607C0.147705 49.6207 0.167705 50.3007 0.187705 50.9607C3.92771 73.9007 13.5477 73.5807 18.5477 74.6807C21.0477 73.5007 24.8077 73.5407 27.3677 72.8807Z" fill="url(#paint2_linear_511_63)"/>
<path d="M53.4677 57.0007C45.7277 67.1007 35.4277 74.6807 22.0477 72.5207C8.94767 70.4207 0.64767 57.6807 0.52767 43.0207C-3.13233 68.5607 12.8677 81.7607 29.3277 82.7807C43.7477 83.6807 55.8477 75.3607 62.9277 65.2807C60.6277 61.1607 55.7077 58.4007 53.4677 57.0007Z" fill="url(#paint3_radial_511_63)"/>
<path d="M58.7276 60.5607C56.7276 58.9207 54.7076 57.7807 53.4676 57.0007C45.7276 67.1007 35.4277 74.6807 22.0476 72.5207C8.94765 70.4207 0.647647 57.6807 0.527647 43.0207C0.527647 43.0407 0.527647 43.0807 0.507647 43.1007C-1.61235 66.4207 12.9076 77.2607 27.3676 78.0207C40.5476 78.7407 52.2076 71.2407 58.7276 60.5607Z" fill="url(#paint4_radial_511_63)"/>
<path d="M64.1876 66.0607C59.6876 64.4407 55.7276 61.5407 52.4276 57.0807C51.6876 56.0807 51.7276 54.7007 52.5276 53.7407C56.2276 49.2407 66.7276 36.5607 69.9676 33.6807C73.9276 30.1607 82.2276 26.0407 84.0476 27.4407C85.8876 28.8407 84.3276 37.8007 81.9876 42.8207C80.5076 46.0007 70.7276 60.2207 67.3276 65.0807C66.6276 66.0607 65.3476 66.4807 64.1876 66.0607Z" fill="url(#paint5_linear_511_63)"/>
<path d="M84.0676 27.4407C84.0076 27.4007 83.9676 27.3607 83.9076 27.3407C81.8276 26.2207 73.8276 30.2407 69.9476 33.6807C66.7076 36.5607 56.2076 49.2407 52.5076 53.7407C51.7276 54.7007 51.6676 56.0807 52.4076 57.0807C53.4476 58.5007 54.5676 59.7407 55.7276 60.8607C56.0076 61.1407 56.3076 61.4007 56.6076 61.6407C56.6676 61.7007 56.7476 61.7607 56.8076 61.8007C57.0676 62.0207 57.3276 62.2207 57.5876 62.4207C57.6276 62.4607 57.6876 62.5007 57.7276 62.5407C58.0276 62.7807 58.3476 63.0007 58.6676 63.2207C58.7076 63.2607 58.7676 63.2807 58.8076 63.3207C59.0676 63.5007 59.3476 63.6807 59.6276 63.8407C59.7076 63.9007 59.7876 63.9407 59.8676 64.0007C60.1476 64.1807 60.4276 64.3407 60.7276 64.5007C60.7676 64.5207 60.8076 64.5407 60.8476 64.5607C61.1676 64.7407 61.5076 64.9007 61.8276 65.0607C61.9076 65.1007 61.9876 65.1407 62.0676 65.1807C62.3276 65.3007 62.5876 65.4207 62.8476 65.5207C62.9476 65.5607 63.0476 65.6007 63.1276 65.6407C63.4676 65.7807 63.8076 65.9207 64.1476 66.0407C64.1676 66.0607 64.2076 66.0607 64.2276 66.0607C65.3476 66.4207 66.5876 66.0007 67.2876 65.0407C70.6876 60.2007 80.4676 45.9807 81.9476 42.7807C84.3276 37.8207 85.8876 28.8807 84.0676 27.4407ZM80.5276 42.1607C78.8276 45.2407 68.1876 58.8207 64.3876 63.3607C62.9876 65.0407 60.7476 64.0807 57.9276 61.8007C56.1476 60.3607 53.5276 57.6407 55.0876 55.5607C58.5876 50.9007 68.3876 37.6607 71.4676 34.6207C74.6676 31.4607 80.9676 27.7207 83.9476 27.4607C85.0276 29.8407 83.0076 37.7007 80.5276 42.1607Z" fill="url(#paint6_linear_511_63)"/>
<path d="M54.5878 51.2407L48.0278 57.4607C47.5878 57.9607 46.7678 57.5207 46.9478 56.8807L48.3478 52.1407C48.4678 51.7407 48.6878 51.4007 48.9678 51.1007L54.0478 46.2207C54.5478 45.7407 55.3078 45.7007 55.8478 46.1207L57.6878 47.5207L54.5878 51.2407ZM69.2078 62.3407L64.9878 70.3207C64.6078 70.8807 65.2678 71.5607 65.8278 71.2007L70.0078 68.5807C70.3478 68.3607 70.6478 68.0607 70.8278 67.7007L74.1678 61.5007C74.4878 60.9007 74.3278 60.1607 73.7878 59.7407L71.9478 58.3407L69.2078 62.3407ZM56.7078 64.6607L59.8278 61.7207L64.9078 55.0207C65.1678 54.6807 65.1078 54.1807 64.7478 53.9207L63.9078 53.2807C63.5678 53.0207 63.0678 53.0807 62.8078 53.4407L57.6878 60.1607L55.7078 63.9207C55.3878 64.5407 56.1878 65.1407 56.7078 64.6607Z" fill="url(#paint7_linear_511_63)"/>
<path d="M75.2476 34.2807C72.9876 34.3807 71.2476 36.3207 71.3476 38.5807C71.4476 40.8407 73.3876 42.5807 75.6476 42.4807C77.9076 42.3807 79.6476 40.4407 79.5476 38.1807C79.4276 35.9207 77.5076 34.1807 75.2476 34.2807ZM75.5876 41.4607C73.8876 41.5407 72.4476 40.2407 72.3676 38.5407C72.2876 36.8407 73.5876 35.4007 75.2876 35.3207C76.9876 35.2407 78.4276 36.5407 78.5076 38.2407C78.6076 39.9407 77.2876 41.3807 75.5876 41.4607Z" fill="url(#paint8_linear_511_63)"/>
<path d="M141.53 51.3897C141.53 55.2491 140.788 58.4757 139.303 61.0694C137.834 63.6476 135.702 65.5929 132.905 66.9054C130.108 68.2022 126.741 68.8507 122.803 68.8507H113.1V34.5851H123.858C127.452 34.5851 130.569 35.2257 133.209 36.5069C135.85 37.7726 137.897 39.6554 139.35 42.1554C140.803 44.6397 141.53 47.7179 141.53 51.3897ZM133.983 51.5772C133.983 49.046 133.608 46.9679 132.858 45.3429C132.124 43.7022 131.03 42.4913 129.577 41.7101C128.139 40.9288 126.358 40.5382 124.233 40.5382H120.366V62.8507H123.483C127.03 62.8507 129.663 61.9054 131.381 60.0147C133.116 58.1241 133.983 55.3116 133.983 51.5772ZM155.217 42.6476V68.8507H148.069V42.6476H155.217ZM151.655 32.3819C152.717 32.3819 153.631 32.6319 154.397 33.1319C155.163 33.6163 155.545 34.5304 155.545 35.8741C155.545 37.2022 155.163 38.1241 154.397 38.6397C153.631 39.1397 152.717 39.3897 151.655 39.3897C150.577 39.3897 149.655 39.1397 148.889 38.6397C148.139 38.1241 147.764 37.2022 147.764 35.8741C147.764 34.5304 148.139 33.6163 148.889 33.1319C149.655 32.6319 150.577 32.3819 151.655 32.3819ZM170.405 80.3819C166.749 80.3819 163.952 79.7413 162.014 78.4601C160.092 77.1944 159.131 75.4132 159.131 73.1163C159.131 71.5382 159.624 70.2179 160.608 69.1554C161.592 68.0929 163.038 67.3351 164.944 66.8819C164.209 66.5694 163.569 66.0616 163.022 65.3585C162.475 64.6397 162.202 63.8819 162.202 63.0851C162.202 62.0851 162.491 61.2569 163.069 60.6007C163.647 59.9288 164.483 59.2726 165.577 58.6319C164.202 58.0382 163.108 57.0851 162.295 55.7726C161.499 54.4601 161.1 52.9132 161.1 51.1319C161.1 49.2257 161.514 47.6085 162.342 46.2804C163.186 44.9366 164.405 43.9132 165.999 43.2101C167.608 42.5069 169.561 42.1554 171.858 42.1554C172.342 42.1554 172.905 42.1866 173.545 42.2491C174.186 42.3116 174.772 42.3819 175.303 42.4601C175.85 42.5382 176.217 42.6007 176.405 42.6476H185.545V46.2804L181.444 47.3351C181.819 47.9132 182.1 48.5304 182.288 49.1866C182.475 49.8429 182.569 50.5382 182.569 51.2726C182.569 54.0851 181.584 56.2804 179.616 57.8585C177.663 59.421 174.944 60.2022 171.459 60.2022C170.631 60.1554 169.85 60.0929 169.116 60.0147C168.756 60.296 168.483 60.5929 168.295 60.9054C168.108 61.2179 168.014 61.546 168.014 61.8897C168.014 62.2335 168.155 62.5226 168.436 62.7569C168.733 62.9757 169.17 63.1476 169.749 63.2726C170.342 63.3819 171.077 63.4366 171.952 63.4366H176.405C179.28 63.4366 181.467 64.0538 182.967 65.2882C184.483 66.5226 185.241 68.3351 185.241 70.7257C185.241 73.7882 183.959 76.1632 181.397 77.8507C178.85 79.5382 175.186 80.3819 170.405 80.3819ZM170.709 75.7179C172.413 75.7179 173.874 75.5538 175.092 75.2257C176.327 74.9132 177.272 74.4601 177.928 73.8663C178.584 73.2882 178.913 72.5929 178.913 71.7804C178.913 71.1241 178.717 70.6007 178.327 70.2101C177.952 69.8351 177.374 69.5694 176.592 69.4132C175.827 69.2569 174.842 69.1788 173.639 69.1788H169.936C169.061 69.1788 168.272 69.3194 167.569 69.6007C166.881 69.8819 166.334 70.2726 165.928 70.7726C165.522 71.2882 165.319 71.8819 165.319 72.5538C165.319 73.5382 165.788 74.3116 166.725 74.8741C167.678 75.4366 169.006 75.7179 170.709 75.7179ZM171.858 55.8429C173.202 55.8429 174.186 55.4288 174.811 54.6007C175.436 53.7726 175.749 52.6476 175.749 51.2257C175.749 49.6476 175.42 48.4679 174.764 47.6866C174.124 46.8897 173.155 46.4913 171.858 46.4913C170.545 46.4913 169.561 46.8897 168.905 47.6866C168.249 48.4679 167.92 49.6476 167.92 51.2257C167.92 52.6476 168.241 53.7726 168.881 54.6007C169.538 55.4288 170.53 55.8429 171.858 55.8429ZM197.03 42.6476V68.8507H189.881V42.6476H197.03ZM193.467 32.3819C194.53 32.3819 195.444 32.6319 196.209 33.1319C196.975 33.6163 197.358 34.5304 197.358 35.8741C197.358 37.2022 196.975 38.1241 196.209 38.6397C195.444 39.1397 194.53 39.3897 193.467 39.3897C192.389 39.3897 191.467 39.1397 190.702 38.6397C189.952 38.1241 189.577 37.2022 189.577 35.8741C189.577 34.5304 189.952 33.6163 190.702 33.1319C191.467 32.6319 192.389 32.3819 193.467 32.3819ZM215.592 63.6241C216.374 63.6241 217.131 63.546 217.866 63.3897C218.616 63.2335 219.358 63.0382 220.092 62.8038V68.1241C219.327 68.4679 218.374 68.7491 217.233 68.9679C216.108 69.2022 214.874 69.3194 213.53 69.3194C211.967 69.3194 210.561 69.0694 209.311 68.5694C208.077 68.0538 207.1 67.171 206.381 65.921C205.678 64.6554 205.327 62.8976 205.327 60.6476V48.0147H201.905V44.9913L205.842 42.6007L207.905 37.0694H212.475V42.6476H219.811V48.0147H212.475V60.6476C212.475 61.6476 212.756 62.3976 213.319 62.8976C213.897 63.3819 214.655 63.6241 215.592 63.6241ZM236.147 42.1085C239.663 42.1085 242.358 42.8741 244.233 44.4054C246.108 45.9366 247.045 48.2647 247.045 51.3897V68.8507H242.053L240.67 65.2882H240.483C239.733 66.2257 238.967 66.9913 238.186 67.5851C237.405 68.1788 236.506 68.6163 235.491 68.8976C234.475 69.1788 233.241 69.3194 231.788 69.3194C230.241 69.3194 228.85 69.0226 227.616 68.4288C226.397 67.8351 225.436 66.9288 224.733 65.7101C224.03 64.4757 223.678 62.9132 223.678 61.0226C223.678 58.2413 224.655 56.1944 226.608 54.8819C228.561 53.5538 231.491 52.8194 235.397 52.6788L239.944 52.5382V51.3897C239.944 50.0147 239.584 49.0069 238.866 48.3663C238.147 47.7257 237.147 47.4054 235.866 47.4054C234.6 47.4054 233.358 47.5851 232.139 47.9444C230.92 48.3038 229.702 48.7569 228.483 49.3038L226.116 44.4757C227.506 43.7413 229.061 43.1632 230.78 42.7413C232.514 42.3194 234.303 42.1085 236.147 42.1085ZM239.944 56.7101L237.178 56.8038C234.866 56.8663 233.256 57.2804 232.35 58.046C231.459 58.8116 231.014 59.8194 231.014 61.0694C231.014 62.1632 231.334 62.9444 231.975 63.4132C232.616 63.8663 233.452 64.0929 234.483 64.0929C236.014 64.0929 237.303 63.6397 238.35 62.7335C239.413 61.8272 239.944 60.5382 239.944 58.8663V56.7101ZM261.577 68.8507H254.428V32.3819H261.577V68.8507ZM310.561 51.3897C310.561 55.2491 309.819 58.4757 308.334 61.0694C306.866 63.6476 304.733 65.5929 301.936 66.9054C299.139 68.2022 295.772 68.8507 291.834 68.8507H282.131V34.5851H292.889C296.483 34.5851 299.6 35.2257 302.241 36.5069C304.881 37.7726 306.928 39.6554 308.381 42.1554C309.834 44.6397 310.561 47.7179 310.561 51.3897ZM303.014 51.5772C303.014 49.046 302.639 46.9679 301.889 45.3429C301.155 43.7022 300.061 42.4913 298.608 41.7101C297.17 40.9288 295.389 40.5382 293.264 40.5382H289.397V62.8507H292.514C296.061 62.8507 298.694 61.9054 300.413 60.0147C302.147 58.1241 303.014 55.3116 303.014 51.5772ZM327.905 42.1554C330.327 42.1554 332.413 42.6241 334.163 43.5616C335.913 44.4835 337.264 45.8272 338.217 47.5929C339.17 49.3585 339.647 51.5147 339.647 54.0616V57.5304H322.749C322.827 59.546 323.428 61.1319 324.553 62.2882C325.694 63.4288 327.272 63.9991 329.288 63.9991C330.959 63.9991 332.491 63.8272 333.881 63.4835C335.272 63.1397 336.702 62.6241 338.17 61.9366V67.4679C336.874 68.1085 335.514 68.5772 334.092 68.8741C332.686 69.171 330.975 69.3194 328.959 69.3194C326.334 69.3194 324.006 68.8351 321.975 67.8663C319.959 66.8976 318.374 65.421 317.217 63.4366C316.077 61.4522 315.506 58.9522 315.506 55.9366C315.506 52.8741 316.022 50.3272 317.053 48.296C318.1 46.2491 319.553 44.7179 321.413 43.7022C323.272 42.671 325.436 42.1554 327.905 42.1554ZM327.952 47.2413C326.561 47.2413 325.405 47.6866 324.483 48.5772C323.577 49.4679 323.053 50.8663 322.913 52.7726H332.944C332.928 51.7101 332.733 50.7647 332.358 49.9366C331.999 49.1085 331.452 48.4522 330.717 47.9679C329.999 47.4835 329.077 47.2413 327.952 47.2413ZM360.038 42.1554C362.991 42.1554 365.374 43.3038 367.186 45.6007C369.014 47.8976 369.928 51.2647 369.928 55.7022C369.928 58.671 369.499 61.171 368.639 63.2022C367.78 65.2179 366.592 66.7413 365.077 67.7726C363.561 68.8038 361.819 69.3194 359.85 69.3194C358.584 69.3194 357.499 69.1632 356.592 68.8507C355.686 68.5226 354.913 68.1085 354.272 67.6085C353.631 67.0929 353.077 66.546 352.608 65.9679H352.233C352.358 66.5929 352.452 67.2335 352.514 67.8897C352.577 68.546 352.608 69.1866 352.608 69.8116V80.3819H345.459V42.6476H351.272L352.28 46.046H352.608C353.077 45.3429 353.647 44.6944 354.319 44.1007C354.991 43.5069 355.795 43.0382 356.733 42.6944C357.686 42.3351 358.788 42.1554 360.038 42.1554ZM357.741 47.8741C356.491 47.8741 355.499 48.1319 354.764 48.6476C354.03 49.1632 353.491 49.9366 353.147 50.9679C352.819 51.9991 352.639 53.3038 352.608 54.8819V55.6554C352.608 57.3429 352.764 58.7726 353.077 59.9444C353.405 61.1163 353.944 62.0069 354.694 62.6163C355.459 63.2257 356.506 63.5304 357.834 63.5304C358.928 63.5304 359.827 63.2257 360.53 62.6163C361.233 62.0069 361.756 61.1163 362.1 59.9444C362.459 58.7569 362.639 57.3116 362.639 55.6085C362.639 53.046 362.241 51.1163 361.444 49.8194C360.647 48.5226 359.413 47.8741 357.741 47.8741ZM386.569 42.1085C390.084 42.1085 392.78 42.8741 394.655 44.4054C396.53 45.9366 397.467 48.2647 397.467 51.3897V68.8507H392.475L391.092 65.2882H390.905C390.155 66.2257 389.389 66.9913 388.608 67.5851C387.827 68.1788 386.928 68.6163 385.913 68.8976C384.897 69.1788 383.663 69.3194 382.209 69.3194C380.663 69.3194 379.272 69.0226 378.038 68.4288C376.819 67.8351 375.858 66.9288 375.155 65.7101C374.452 64.4757 374.1 62.9132 374.1 61.0226C374.1 58.2413 375.077 56.1944 377.03 54.8819C378.983 53.5538 381.913 52.8194 385.819 52.6788L390.366 52.5382V51.3897C390.366 50.0147 390.006 49.0069 389.288 48.3663C388.569 47.7257 387.569 47.4054 386.288 47.4054C385.022 47.4054 383.78 47.5851 382.561 47.9444C381.342 48.3038 380.124 48.7569 378.905 49.3038L376.538 44.4757C377.928 43.7413 379.483 43.1632 381.202 42.7413C382.936 42.3194 384.725 42.1085 386.569 42.1085ZM390.366 56.7101L387.6 56.8038C385.288 56.8663 383.678 57.2804 382.772 58.046C381.881 58.8116 381.436 59.8194 381.436 61.0694C381.436 62.1632 381.756 62.9444 382.397 63.4132C383.038 63.8663 383.874 64.0929 384.905 64.0929C386.436 64.0929 387.725 63.6397 388.772 62.7335C389.834 61.8272 390.366 60.5382 390.366 58.8663V56.7101ZM419.475 42.1554C419.834 42.1554 420.249 42.1788 420.717 42.2257C421.202 42.2569 421.592 42.3038 421.889 42.3663L421.35 49.0694C421.116 48.9913 420.78 48.9366 420.342 48.9054C419.92 48.8585 419.553 48.8351 419.241 48.8351C418.319 48.8351 417.42 48.9522 416.545 49.1866C415.686 49.421 414.913 49.8038 414.225 50.3351C413.538 50.8507 412.991 51.5382 412.584 52.3976C412.194 53.2413 411.999 54.2804 411.999 55.5147V68.8507H404.85V42.6476H410.264L411.319 47.0538H411.67C412.186 46.1632 412.827 45.3507 413.592 44.6163C414.374 43.8663 415.256 43.2726 416.241 42.8351C417.241 42.3819 418.319 42.1554 419.475 42.1554ZM437.686 63.6241C438.467 63.6241 439.225 63.546 439.959 63.3897C440.709 63.2335 441.452 63.0382 442.186 62.8038V68.1241C441.42 68.4679 440.467 68.7491 439.327 68.9679C438.202 69.2022 436.967 69.3194 435.624 69.3194C434.061 69.3194 432.655 69.0694 431.405 68.5694C430.17 68.0538 429.194 67.171 428.475 65.921C427.772 64.6554 427.42 62.8976 427.42 60.6476V48.0147H423.999V44.9913L427.936 42.6007L429.999 37.0694H434.569V42.6476H441.905V48.0147H434.569V60.6476C434.569 61.6476 434.85 62.3976 435.413 62.8976C435.991 63.3819 436.749 63.6241 437.686 63.6241ZM478.28 42.1554C481.249 42.1554 483.491 42.921 485.006 44.4522C486.538 45.9679 487.303 48.4054 487.303 51.7647V68.8507H480.131V53.546C480.131 51.671 479.811 50.2569 479.17 49.3038C478.53 48.3507 477.538 47.8741 476.194 47.8741C474.303 47.8741 472.959 48.5538 472.163 49.9132C471.366 51.2569 470.967 53.1866 470.967 55.7022V68.8507H463.819V53.546C463.819 52.296 463.678 51.2491 463.397 50.4054C463.116 49.5616 462.686 48.9288 462.108 48.5069C461.53 48.0851 460.788 47.8741 459.881 47.8741C458.553 47.8741 457.506 48.2101 456.741 48.8819C455.991 49.5382 455.452 50.5147 455.124 51.8116C454.811 53.0929 454.655 54.6632 454.655 56.5226V68.8507H447.506V42.6476H452.967L453.928 45.9991H454.327C454.858 45.0929 455.522 44.3585 456.319 43.796C457.131 43.2335 458.022 42.8194 458.991 42.5538C459.959 42.2882 460.944 42.1554 461.944 42.1554C463.866 42.1554 465.491 42.4679 466.819 43.0929C468.163 43.7179 469.194 44.6866 469.913 45.9991H470.545C471.327 44.6554 472.428 43.6788 473.85 43.0694C475.288 42.4601 476.764 42.1554 478.28 42.1554ZM505.467 42.1554C507.889 42.1554 509.975 42.6241 511.725 43.5616C513.475 44.4835 514.827 45.8272 515.78 47.5929C516.733 49.3585 517.209 51.5147 517.209 54.0616V57.5304H500.311C500.389 59.546 500.991 61.1319 502.116 62.2882C503.256 63.4288 504.834 63.9991 506.85 63.9991C508.522 63.9991 510.053 63.8272 511.444 63.4835C512.834 63.1397 514.264 62.6241 515.733 61.9366V67.4679C514.436 68.1085 513.077 68.5772 511.655 68.8741C510.249 69.171 508.538 69.3194 506.522 69.3194C503.897 69.3194 501.569 68.8351 499.538 67.8663C497.522 66.8976 495.936 65.421 494.78 63.4366C493.639 61.4522 493.069 58.9522 493.069 55.9366C493.069 52.8741 493.584 50.3272 494.616 48.296C495.663 46.2491 497.116 44.7179 498.975 43.7022C500.834 42.671 502.999 42.1554 505.467 42.1554ZM505.514 47.2413C504.124 47.2413 502.967 47.6866 502.045 48.5772C501.139 49.4679 500.616 50.8663 500.475 52.7726H510.506C510.491 51.7101 510.295 50.7647 509.92 49.9366C509.561 49.1085 509.014 48.4522 508.28 47.9679C507.561 47.4835 506.639 47.2413 505.514 47.2413ZM537.905 42.1554C540.702 42.1554 542.952 42.921 544.655 44.4522C546.358 45.9679 547.209 48.4054 547.209 51.7647V68.8507H540.061V53.546C540.061 51.671 539.717 50.2569 539.03 49.3038C538.358 48.3507 537.295 47.8741 535.842 47.8741C533.655 47.8741 532.163 48.6163 531.366 50.1007C530.569 51.5851 530.17 53.7257 530.17 56.5226V68.8507H523.022V42.6476H528.483L529.444 45.9991H529.842C530.405 45.0929 531.1 44.3585 531.928 43.796C532.772 43.2335 533.702 42.8194 534.717 42.5538C535.749 42.2882 536.811 42.1554 537.905 42.1554ZM565.608 63.6241C566.389 63.6241 567.147 63.546 567.881 63.3897C568.631 63.2335 569.374 63.0382 570.108 62.8038V68.1241C569.342 68.4679 568.389 68.7491 567.249 68.9679C566.124 69.2022 564.889 69.3194 563.545 69.3194C561.983 69.3194 560.577 69.0694 559.327 68.5694C558.092 68.0538 557.116 67.171 556.397 65.921C555.694 64.6554 555.342 62.8976 555.342 60.6476V48.0147H551.92V44.9913L555.858 42.6007L557.92 37.0694H562.491V42.6476H569.827V48.0147H562.491V60.6476C562.491 61.6476 562.772 62.3976 563.334 62.8976C563.913 63.3819 564.67 63.6241 565.608 63.6241Z" fill="url(#paint9_linear_511_63)"/>
<defs>
<radialGradient id="paint0_radial_511_63" cx="0" cy="0" r="1" gradientUnits="userSpaceOnUse" gradientTransform="translate(16.4943 31.2601) scale(72.2856 72.2856)">
<stop stop-color="#2A8BF3"/>
<stop offset="0.6847" stop-color="#754FF6"/>
<stop offset="0.9974" stop-color="#9932F7"/>
</radialGradient>
<radialGradient id="paint1_radial_511_63" cx="0" cy="0" r="1" gradientUnits="userSpaceOnUse" gradientTransform="translate(11.2747 17.1437) rotate(10.4077) scale(73.4197 73.4197)">
<stop stop-color="#04D3F7"/>
<stop offset="0.5849" stop-color="#756DF3"/>
<stop offset="1" stop-color="#C129F1"/>
</radialGradient>
<linearGradient id="paint2_linear_511_63" x1="7.0044" y1="43.7665" x2="18.4436" y2="76.9065" gradientUnits="userSpaceOnUse">
<stop stop-color="white"/>
<stop offset="1" stop-color="#222221"/>
</linearGradient>
<radialGradient id="paint3_radial_511_63" cx="0" cy="0" r="1" gradientUnits="userSpaceOnUse" gradientTransform="translate(63.8685 56.5874) rotate(10.4077) scale(74.6874)">
<stop offset="0.00104167" stop-color="#D395F7"/>
<stop offset="0.611" stop-color="#55B3FC"/>
<stop offset="1" stop-color="#09C5FF"/>
</radialGradient>
<radialGradient id="paint4_radial_511_63" cx="0" cy="0" r="1" gradientUnits="userSpaceOnUse" gradientTransform="translate(53.9875 61.7356) rotate(10.4077) scale(57.2037 57.2037)">
<stop offset="0.0005008" stop-color="#FFD3F7"/>
<stop offset="0.3167" stop-color="#B3D3F7"/>
<stop offset="1" stop-color="#04D3F7"/>
</radialGradient>
<linearGradient id="paint5_linear_511_63" x1="74.0672" y1="40.9441" x2="45.0262" y2="79.264" gradientUnits="userSpaceOnUse">
<stop offset="0.00410657" stop-color="white"/>
<stop offset="0.3192" stop-color="#B3F2FD"/>
<stop offset="1" stop-color="#04D3F7"/>
</linearGradient>
<linearGradient id="paint6_linear_511_63" x1="78.382" y1="36.1444" x2="50.6719" y2="71.3572" gradientUnits="userSpaceOnUse">
<stop offset="0.00410657" stop-color="white"/>
<stop offset="0.3543" stop-color="#B3E6FF"/>
<stop offset="0.9969" stop-color="#1FB4FF"/>
</linearGradient>
<linearGradient id="paint7_linear_511_63" x1="66.1083" y1="51.2786" x2="54.0628" y2="67.0873" gradientUnits="userSpaceOnUse">
<stop offset="0.0025641" stop-color="#04FFF7"/>
<stop offset="0.6325" stop-color="#7E75F3"/>
<stop offset="1" stop-color="#C129F1"/>
</linearGradient>
<linearGradient id="paint8_linear_511_63" x1="79.8884" y1="33.2333" x2="69.2087" y2="45.8641" gradientUnits="userSpaceOnUse">
<stop offset="0.0025641" stop-color="#04FFF7"/>
<stop offset="0.6325" stop-color="#7E75F3"/>
<stop offset="1" stop-color="#C129F1"/>
</linearGradient>
<linearGradient id="paint9_linear_511_63" x1="110.5" y1="51.5001" x2="584" y2="50" gradientUnits="userSpaceOnUse">
<stop stop-color="#2B83C8"/>
<stop offset="1" stop-color="#5AE6C5"/>
</linearGradient>
</defs>
</svg>
